# xmcd
#
# Track frame offsets:
#	150
#	11965
#	23965
#	36207
#	47417
#	60617
#	75762
#	86405
#	102280
#	113987
#	126977
#	140617
#	154452
#	165607
#
# Disc length: 2429 seconds
#
# Revision: 5
# Processed by: cddbd v1.5.2PL0 Copyright (c) Steve Scherf et al.
# Submitted via: audiograbber 1.83.01
#
DISCID=b2097b0e
DTITLE=Sinatra, Frank - Sinatra and company
DYEAR=1971
DGENRE=Swing
TTITLE0=Drinking water (Agua de beber)
TTITLE1=Someone to light up my life
TTITLE2=Triste
TTITLE3=Don't ever go away (Por causa de voce)
TTITLE4=This happy madness (Estrada branca)
TTITLE5=Wave
TTITLE6=One note samba (Samba de uma nota so)
TTITLE7=I will drink the wine
TTITLE8=Close to you
TTITLE9=Sunrise in the morning
TTITLE10=Bein' green
TTITLE11=My sweet lady
TTITLE12=Leaving on a jet plane
TTITLE13=Lady day
EXTD=
EXTT0=
EXTT1=
EXTT2=
EXTT3=
EXTT4=
EXTT5=
EXTT6=
EXTT7=
EXTT8=
EXTT9=
EXTT10=
EXTT11=
EXTT12=
EXTT13=
PLAYORDER=
